HIERARCHY
ROOT Hips
{
	OFFSET 0.0 0.0 0.0
	CHANNELS 6 Xposition Yposition Zposition Zrotation Yrotation Xrotation 
	JOINT LeftUpLeg
	{
		OFFSET 0.103457 1.857819 10.548500
		CHANNELS 3 Zrotation Yrotation Xrotation
		JOINT LeftLeg
		{
			OFFSET 43.500000 -0.000019 -0.000010
			CHANNELS 3 Zrotation Yrotation Xrotation
			JOINT LeftFoot
			{
				OFFSET 42.372196 0.000008 0.000000
				CHANNELS 3 Zrotation Yrotation Xrotation
				JOINT LeftToe
				{
					OFFSET 17.300003 0.000001 0.000006
					CHANNELS 3 Zrotation Yrotation Xrotation
					End Site
					{
						OFFSET 0.000000 0.000000 0.000000
					}
				}
			}
		}
	}
	JOINT RightUpLeg
	{
		OFFSET 0.103456 1.857821 -10.548498
		CHANNELS 3 Zrotation Yrotation Xrotation
		JOINT RightLeg
		{
			OFFSET 43.500046 -0.000031 0.000019
			CHANNELS 3 Zrotation Yrotation Xrotation
			JOINT RightFoot
			{
				OFFSET 42.372261 -0.000004 0.000021
				CHANNELS 3 Zrotation Yrotation Xrotation
				JOINT RightToe
				{
					OFFSET 17.300016 0.000003 0.000000
					CHANNELS 3 Zrotation Yrotation Xrotation
					End Site
					{
						OFFSET 0.000000 0.000000 0.000000
					}
				}
			}
		}
	}
	JOINT Spine
	{
		OFFSET 6.901967 -2.603733 -0.000002
		CHANNELS 3 Zrotation Yrotation Xrotation
		JOINT Spine1
		{
			OFFSET 12.588102 0.000004 -0.000004
			CHANNELS 3 Zrotation Yrotation Xrotation
			JOINT Spine2
			{
				OFFSET 12.343203 -0.000004 0.000000
				CHANNELS 3 Zrotation Yrotation Xrotation
				JOINT Neck
				{
					OFFSET 25.832895 -0.000011 0.000005
					CHANNELS 3 Zrotation Yrotation Xrotation
					JOINT Head
					{
						OFFSET 11.766605 0.000003 0.000008
						CHANNELS 3 Zrotation Yrotation Xrotation
						End Site
						{
							OFFSET 0.000000 0.000000 0.000000
						}
					}
				}
				JOINT LeftShoulder
				{
					OFFSET 19.745905 -1.480360 6.000111
					CHANNELS 3 Zrotation Yrotation Xrotation
					JOINT LeftArm
					{
						OFFSET 11.284124 0.000007 -0.000017
						CHANNELS 3 Zrotation Yrotation Xrotation
						JOINT LeftForeArm
						{
							OFFSET 33.000050 0.000003 0.000017
							CHANNELS 3 Zrotation Yrotation Xrotation
							JOINT LeftHand
							{
								OFFSET 25.200005 0.000010 0.000011
								CHANNELS 3 Zrotation Yrotation Xrotation
								End Site
								{
									OFFSET 0.000000 0.000000 0.000000
								}
							}
						}
					}
				}
				JOINT RightShoulder
				{
					OFFSET 19.746092 -1.480387 -6.000073
					CHANNELS 3 Zrotation Yrotation Xrotation
					JOINT RightArm
					{
						OFFSET 11.284132 -0.000045 -0.000015
						CHANNELS 3 Zrotation Yrotation Xrotation
						JOINT RightForeArm
						{
							OFFSET 33.000092 0.000031 0.000005
							CHANNELS 3 Zrotation Yrotation Xrotation
							JOINT RightHand
							{
								OFFSET 25.199797 0.000145 0.000419
								CHANNELS 3 Zrotation Yrotation Xrotation
								End Site
								{
									OFFSET 0.000000 0.000000 0.000000
								}
							}
						}
					}
				}
			}
		}
	}
}
MOTION
Frames: 10
Frame Time: 0.033333
-25.260990 90.079681 50.925400 86.873893 4.218300 -57.060056 163.769467 2.808302 162.420532 -23.439640 0.387759 -9.962840 78.681102 6.651474 -1.008645 21.454551 0.003089 -0.000001 166.695357 19.083494 -157.824566 -48.058662 -7.953980 23.906639 64.460470 -13.024727 10.683656 21.454560 -0.003116 -0.000014 6.496838 0.088450 0.304587 2.981309 0.169126 0.611303 2.663210 0.172946 0.610280 2.379471 -0.662364 15.079970 1.917606 -16.311047 17.698622 -165.063283 -69.130756 -16.730405 -17.554054 54.114762 16.459742 -17.623129 -6.228632 0.481479 11.649921 -6.444391 35.056431 -167.397705 72.725156 14.305567 -3.069673 -47.726790 -32.056263 -29.179890 13.596217 -1.150117 8.499409 2.974812 -10.145210 
-26.663610 90.150360 50.280491 87.374300 3.968252 -53.062018 164.838638 3.401091 163.951492 -22.765277 0.017299 -8.529581 79.237503 5.860032 -0.192615 21.454550 0.003090 0.000000 165.087831 19.312385 -158.644558 -53.181881 -7.098893 19.222090 67.981126 -10.798159 7.962822 21.454560 -0.003106 -0.000012 6.498708 0.176984 0.208343 2.984809 0.348588 0.421071 2.666698 0.351277 0.418960 2.190185 -0.826931 14.342142 2.496868 -15.462652 16.627843 -164.785882 -69.173499 -17.017360 -17.318585 53.561797 17.387124 -18.705562 -6.318948 0.498283 11.655947 -5.344626 35.664806 -167.513791 72.643413 14.186208 -3.099217 -47.902459 -32.259366 -29.689719 13.691421 -1.165890 8.474229 1.906787 -9.875922 
-27.910980 90.146240 49.523590 87.685415 3.895003 -48.933108 165.938353 4.232802 165.596120 -21.902716 0.033438 -7.124517 79.498757 4.991620 0.249614 21.454551 0.003092 0.000001 163.651469 18.912092 -159.621535 -56.667429 -6.102918 15.647772 72.875694 -8.713573 7.212492 21.454560 -0.003107 -0.000022 6.498672 0.172595 0.026664 2.984354 0.344404 0.057691 2.666264 0.344877 0.055610 1.855428 -0.694539 13.497233 2.706239 -14.526872 15.621708 -164.830797 -69.434583 -16.969388 -17.163623 52.909456 18.276960 -19.938859 -6.494913 0.523340 11.421937 -4.728215 35.656326 -167.328119 72.286139 14.377750 -3.637327 -48.035085 -32.353694 -30.573733 14.026851 -1.204667 8.315107 0.743260 -10.374031 
-29.134609 90.203423 48.627869 88.112241 3.792949 -45.030030 167.315196 4.658707 166.407806 -20.597264 0.127907 -5.282094 79.544697 3.834090 0.701390 21.454551 0.003090 0.000000 161.827276 17.281296 -161.187246 -58.145373 -5.200614 15.474890 74.935645 -8.565594 7.716823 21.454562 -0.003109 -0.000015 6.498073 0.140562 -0.151325 2.982920 0.284864 -0.299034 2.664842 0.283178 -0.300749 1.450311 -0.322781 12.566556 2.709209 -13.603432 14.669389 -165.066520 -69.919902 -16.723122 -17.157961 52.363843 18.889517 -21.206938 -6.796941 0.558331 11.156070 -4.708384 35.341984 -166.959603 71.888287 14.757911 -4.518687 -48.483285 -31.742389 -31.684862 14.481521 -1.256385 8.190915 0.183399 -11.255930 
-30.297140 90.193039 47.679390 88.514327 3.852511 -41.602047 168.440169 4.759994 166.639609 -19.694593 -0.016473 -3.333915 79.750224 2.619281 1.186512 21.454553 0.003095 0.000000 159.779052 15.097308 -163.360722 -57.829190 -4.738040 16.158575 76.208061 -8.645073 9.529919 21.454562 -0.003119 -0.000014 6.496800 0.035191 -0.296520 2.980536 0.077805 -0.592044 2.662439 0.074375 -0.592499 0.974991 0.081117 11.637728 2.722098 -12.606533 13.717831 -165.251605 -70.355313 -16.529782 -17.424257 51.722929 19.193887 -22.382854 -7.113603 0.594249 10.852806 -5.180332 35.127998 -166.792673 71.651171 14.930391 -5.592272 -49.243253 -30.691517 -32.946353 14.991220 -1.315823 8.138709 0.392036 -11.761989 
-31.393080 90.078033 46.714119 88.774933 4.110020 -38.570068 169.102670 4.864307 167.273915 -19.642801 -0.339162 -1.867900 80.300458 1.700337 1.537206 21.454551 0.003086 -0.000001 157.735050 12.810196 -165.674353 -56.015495 -5.300580 15.880212 78.257493 -8.307688 10.616233 21.454562 -0.003111 -0.000016 6.518778 -0.152730 -0.416833 3.025812 -0.294761 -0.837450 2.707741 -0.299676 -0.835655 0.493337 0.340562 10.731842 2.705133 -11.383542 12.692419 -165.484992 -70.546258 -16.287814 -18.130336 50.730018 19.224575 -23.308775 -7.297608 0.618948 10.474309 -5.802014 35.145855 -167.030186 71.542379 14.685819 -6.752268 -50.051862 -29.744678 -34.344199 15.584712 -1.384969 8.003526 1.094599 -11.921832 
-32.521530 89.986397 45.697441 88.983602 4.275283 -35.724123 169.688824 4.975007 168.812264 -19.950894 -0.638455 -1.056401 81.007717 1.184832 1.721961 21.454555 0.003092 -0.000000 155.891432 10.289197 -167.878291 -52.670191 -6.691754 15.735380 79.367529 -8.198367 10.923033 21.454560 -0.003111 -0.000020 6.588572 -0.339902 -0.511152 3.167345 -0.665975 -1.031276 2.849287 -0.672054 -1.027239 0.100302 0.405864 9.817331 2.484816 -9.961569 11.569033 -166.103903 -70.517318 -15.648855 -19.354000 49.429727 19.059996 -23.848005 -7.313344 0.627579 10.097279 -6.272910 35.239910 -167.510827 71.488940 14.190563 -7.902819 -50.711064 -29.066963 -35.862619 16.196352 -1.459657 7.660123 1.908194 -12.392379 
-33.732868 89.999847 44.640228 89.217509 4.150159 -32.966065 170.533021 4.952394 170.989906 -20.063670 -0.831949 -0.663560 81.645609 0.936803 1.834326 21.454550 0.003093 -0.000000 154.840648 7.506305 -170.379861 -47.888878 -8.093918 15.240889 79.795153 -7.966860 10.493366 21.454562 -0.003094 -0.000015 6.702036 -0.454551 -0.570227 3.395807 -0.892475 -1.153370 3.077753 -0.899292 -1.147964 -0.052321 0.248843 8.901684 1.924244 -8.455249 10.372316 -167.264216 -70.376391 -14.450710 -20.997429 48.124997 18.818571 -23.942487 -7.259918 0.625799 9.877195 -6.539157 35.297103 -168.007791 71.528869 13.678327 -8.912220 -51.169878 -28.533296 -37.451631 16.664615 -1.528593 7.191114 2.513722 -13.330326 
-35.054691 90.138924 43.551262 89.482015 3.691548 -30.257075 171.781074 4.618700 173.213338 -19.741796 -0.961698 -0.288214 82.168378 0.690719 1.897455 21.454551 0.003094 0.000001 154.330160 4.746309 -173.772361 -42.289789 -8.674055 14.047356 78.880441 -7.337652 9.416413 21.454562 -0.003098 -0.000016 6.837622 -0.471911 -0.605383 3.667461 -0.924700 -1.225256 3.349388 -0.931947 -1.219647 0.113153 -0.150923 8.037936 1.053659 -6.934622 9.138236 -168.663421 -70.264758 -13.005348 -22.832834 47.263523 18.384836 -23.703330 -7.291165 0.624053 9.910159 -6.659260 35.472526 -168.429719 71.739540 13.243509 -9.637793 -51.462019 -28.120292 -39.050982 16.912067 -1.585337 6.819384 2.717265 -14.198310 
-36.428768 90.405540 42.462990 89.789202 2.938580 -27.604980 173.357605 3.865204 175.086217 -18.918550 -1.085833 0.291881 82.501247 0.323504 2.025909 21.454550 0.003092 0.000000 154.687461 2.433807 -178.053961 -35.621359 -8.274085 11.383244 76.814350 -5.636552 8.353274 21.454560 -0.003106 -0.000016 6.971096 -0.401833 -0.632087 3.933815 -0.782255 -1.277332 3.615759 -0.789813 -1.272584 0.470895 -0.708673 7.257175 0.140184 -5.450583 7.905135 -169.896516 -70.286034 -11.731474 -24.585314 47.137963 17.332462 -23.412685 -7.486464 0.632872 10.162464 -6.752748 35.996275 -168.816212 72.071282 12.845732 -10.023756 -51.595809 -27.891820 -40.610539 16.983262 -1.631306 6.650463 2.532746 -14.668569 
